<?xml version="1.0" encoding="utf-8"?>
<!-- Generator: Adobe Illustrator 24.0.1, SVG Export Plug-In . SVG Version: 6.00 Build 0)  -->
<svg version="1.1" id="Layer_1" xmlns="http://www.w3.org/2000/svg" xmlns:xlink="http://www.w3.org/1999/xlink" x="0px" y="0px"
	 viewBox="0 0 100 100" style="enable-background:new 0 0 100 100;" xml:space="preserve">
<style type="text/css">
	.st0{fill:#FFFFFF;}
	.st1{fill:#4176FA;}
	.st2{fill:#F1F2F2;}
</style>
<g>
	<path class="st0" d="M50,100L50,100C22.39,100,0,77.61,0,50v0C0,22.39,22.39,0,50,0h0c27.61,0,50,22.39,50,50v0
		C100,77.61,77.61,100,50,100z"/>
	<g>
		<g>
			<circle class="st1" cx="50" cy="50" r="49.5"/>
		</g>
		<g>
			<path class="st2" d="M67.75,41.39c-14.3,0-14.32,14.24-14.32,14.32c0,0-0.98,14.26,14.32,14.26c0,0,12.76,0.73,12.76-9.93h-6.55
				c0,0,0.22,4.01-5.99,4.01c0,0-6.55,0.44-6.55-6.48h19.31C80.72,57.58,82.84,41.39,67.75,41.39z M61.34,52.59
				c0,0,0.8-5.73,6.55-5.73c5.77,0,5.68,5.73,5.68,5.73H61.34z M44.98,48.92c0,0,5.68-0.42,5.68-7.09c0-6.66-4.64-9.93-10.54-9.93
				h-19.4v37.29h19.4c0,0,11.85,0.36,11.85-11.01C51.96,58.17,52.47,48.92,44.98,48.92z M29.26,38.52h10.85c0,0,2.63,0,2.63,3.88
				s-1.54,4.45-3.3,4.45H29.26V38.52z M39.57,62.57H29.26v-9.98h10.85c0,0,3.94-0.04,3.92,5.13C44.03,62.08,41.11,62.53,39.57,62.57
				z M59.73,34.1v4.59h15.39V34.1H59.73z"/>
		</g>
	</g>
	<g>
		<path class="st0" d="M50,3c25.92,0,47,21.08,47,47c0,25.92-21.08,47-47,47C24.08,97,3,75.92,3,50C3,24.08,24.08,3,50,3 M50,0L50,0
			C22.39,0,0,22.39,0,50v0c0,27.61,22.39,50,50,50h0c27.61,0,50-22.39,50-50v0C100,22.39,77.61,0,50,0L50,0z"/>
	</g>
</g>
</svg>
