<?xml version="1.0" encoding="utf-8"?>
<!-- Generator: Adobe Illustrator 24.0.1, SVG Export Plug-In . SVG Version: 6.00 Build 0)  -->
<svg version="1.1" id="Layer_1" xmlns="http://www.w3.org/2000/svg" xmlns:xlink="http://www.w3.org/1999/xlink" x="0px" y="0px"
	 viewBox="0 0 150 100" style="enable-background:new 0 0 150 100;" xml:space="preserve">
<style type="text/css">
	.st0{fill-rule:evenodd;clip-rule:evenodd;fill:#FFFFFF;}
	.st1{fill:#D41D55;}
	.st2{fill:#E1136E;}
	.st3{fill:#9E1C3B;}
	.st4{fill:#EB008B;}
	.st5{fill:#231F20;}
</style>
<g>
	<path class="st0" d="M145,100H5c-2.76,0-5-2.24-5-5V5c0-2.76,2.24-5,5-5h140c2.76,0,5,2.24,5,5v90C150,97.76,147.76,100,145,100z"
		/>
	<g>
		<g>
			<path class="st1" d="M90.86,48.28c-7.3-9.37-14.46-18.56-21.62-27.75c0.04-0.07,0.07-0.14,0.11-0.21
				c9.38,1.13,18.75,2.25,28.27,3.4C95.36,31.9,93.14,39.98,90.86,48.28z"/>
			<path class="st2" d="M91.99,48.49c2.27-8.23,4.5-16.36,6.81-24.72c6.97,9.73,13.8,19.26,20.63,28.8
				c-0.04,0.07-0.07,0.15-0.11,0.22C110.26,51.37,101.2,49.94,91.99,48.49z"/>
			<path class="st1" d="M92.05,49.69c8.84,1.41,17.5,2.8,26.15,4.18c0.02,0.09,0.03,0.17,0.05,0.26
				c-7.49,3.75-14.97,7.51-22.6,11.33C94.46,60.2,93.28,55.06,92.05,49.69z"/>
			<path class="st3" d="M82.27,79.59c2.81-9.91,5.62-19.82,8.5-29.96c0.15,0.35,0.26,0.51,0.3,0.68c1.35,6.05,2.68,12.11,4.04,18.15
				c0.14,0.6,0.01,0.96-0.48,1.35c-3.88,3.13-7.73,6.3-11.6,9.45c-0.18,0.15-0.38,0.28-0.57,0.42
				C82.4,79.65,82.34,79.62,82.27,79.59z"/>
			<path class="st1" d="M112.42,41.08c4.56-0.82,8.94-1.61,13.57-2.45c-1.74,4.75-3.41,9.32-5.17,14.11
				C117.98,48.8,115.27,45.04,112.42,41.08z"/>
			<path class="st2" d="M99.26,64.87c6.75-3.44,13.51-6.89,20.26-10.33c0.05,0.05,0.11,0.09,0.16,0.14
				c-0.25,0.77-0.49,1.55-0.78,2.31c-0.06,0.16-0.3,0.3-0.48,0.37c-6.3,2.54-12.6,5.08-18.91,7.61C99.47,65,99.41,65,99.36,65.01
				C99.33,64.96,99.29,64.92,99.26,64.87z"/>
			<path class="st2" d="M132.42,44.54c-2.46,0-4.92,0-7.52,0c0.71-1.94,1.39-3.8,2.01-5.49c1.87,1.76,3.73,3.5,5.59,5.25
				C132.47,44.38,132.44,44.46,132.42,44.54z"/>
			<path class="st3" d="M79.91,36.3c-3.84-3.64-7.68-7.27-11.52-10.91c0.03-0.07,0.06-0.14,0.08-0.21c0.97,0,1.95-0.01,2.92,0.01
				c0.15,0,0.33,0.18,0.43,0.32c2.71,3.46,5.41,6.93,8.1,10.4c0.06,0.08,0.08,0.18,0.12,0.27C80,36.22,79.96,36.26,79.91,36.3z"/>
		</g>
		<g>
			<path class="st4" d="M17.5,58.3c0.05-0.85,0.1-2.11,0.1-3.21V40.05h2.24v7.81h0.05c0.8-1.39,2.24-2.29,4.24-2.29
				c3.08,0,5.27,2.57,5.24,6.35c0,4.45-2.8,6.66-5.58,6.66c-1.8,0-3.24-0.69-4.16-2.34h-0.08l-0.1,2.06H17.5z M19.84,53.31
				c0,0.28,0.05,0.57,0.1,0.82c0.44,1.57,1.75,2.65,3.39,2.65c2.36,0,3.78-1.93,3.78-4.78c0-2.49-1.28-4.63-3.7-4.63
				c-1.54,0-2.98,1.05-3.44,2.78c-0.05,0.26-0.13,0.57-0.13,0.93V53.31z"/>
			<path class="st5" d="M32.3,40.98h2.24v8.35h0.08c0.46-0.67,0.93-1.28,1.36-1.85l5.29-6.5h2.78l-6.27,7.35l6.76,9.97h-2.65
				l-5.7-8.51l-1.64,1.9v6.6H32.3V40.98z"/>
			<path class="st5" d="M53.45,58.3l-0.18-1.57h-0.08c-0.69,0.98-2.03,1.85-3.8,1.85c-2.52,0-3.8-1.77-3.8-3.57
				c0-3.01,2.67-4.65,7.48-4.63v-0.26c0-1.03-0.28-2.88-2.83-2.88c-1.16,0-2.36,0.36-3.24,0.93l-0.51-1.49
				c1.03-0.67,2.52-1.1,4.09-1.1c3.8,0,4.73,2.6,4.73,5.09v4.65c0,1.08,0.05,2.13,0.21,2.98H53.45z M53.12,51.95
				c-2.47-0.05-5.27,0.39-5.27,2.8c0,1.46,0.98,2.16,2.13,2.16c1.62,0,2.65-1.03,3.01-2.08c0.08-0.23,0.13-0.49,0.13-0.72V51.95z"/>
			<path class="st5" d="M58.64,55.98c0.67,0.44,1.85,0.9,2.98,0.9c1.64,0,2.42-0.82,2.42-1.85c0-1.08-0.64-1.67-2.31-2.29
				c-2.24-0.8-3.29-2.03-3.29-3.52c0-2,1.62-3.65,4.29-3.65c1.26,0,2.36,0.36,3.06,0.77l-0.57,1.64c-0.49-0.31-1.39-0.72-2.54-0.72
				c-1.34,0-2.08,0.77-2.08,1.7c0,1.03,0.75,1.49,2.36,2.11c2.16,0.82,3.26,1.9,3.26,3.75c0,2.18-1.7,3.73-4.65,3.73
				c-1.36,0-2.62-0.33-3.49-0.85L58.64,55.98z"/>
			<path class="st5" d="M69.12,40.05h2.26v7.76h0.05c0.36-0.64,0.93-1.21,1.62-1.59c0.67-0.39,1.46-0.64,2.31-0.64
				c1.67,0,4.34,1.03,4.34,5.32v7.4h-2.26v-7.14c0-2-0.75-3.7-2.88-3.7c-1.46,0-2.62,1.03-3.03,2.26c-0.13,0.31-0.15,0.64-0.15,1.08
				v7.5h-2.26V40.05z"/>
		</g>
	</g>
</g>
</svg>
