<?xml version="1.0" encoding="utf-8"?>
<!-- Generator: Adobe Illustrator 24.0.1, SVG Export Plug-In . SVG Version: 6.00 Build 0)  -->
<svg version="1.1" id="Layer_1" xmlns="http://www.w3.org/2000/svg" xmlns:xlink="http://www.w3.org/1999/xlink" x="0px" y="0px"
	 viewBox="0 0 100 100" style="enable-background:new 0 0 100 100;" xml:space="preserve">
<style type="text/css">
	.st0{fill:#FFFFFF;}
</style>
<path class="st0" d="M85.35,14.65C76.3,5.6,63.8,0,50,0S23.7,5.6,14.65,14.65C5.6,23.7,0,36.2,0,50c0,27.61,22.39,50,50,50
	c13.8,0,26.3-5.6,35.35-14.65C94.4,76.3,100,63.8,100,50S94.4,23.7,85.35,14.65z M52.11,31.02c9.31,0.01,16.86,7.56,16.87,16.87
	h-4.22c-0.01-6.98-5.67-12.64-12.65-12.65V31.02z M65.77,79.52c-0.13,0-12.8-0.21-29.08-16.21c-16-16.28-16.21-28.95-16.21-29.08
	c0-1.58,9.84-13.75,12.02-13.75c0.75,0,1.34,0.51,1.98,1.27c1.54,1.85,8.39,12.65,8.08,14.45c-0.15,0.85-0.87,1.49-2.93,3.22
	c-1.02,0.8-1.97,1.67-2.84,2.62c0.42,1.74,1.04,3.42,1.85,5.01c3.04,6.23,8.07,11.27,14.31,14.31c1.59,0.81,3.27,1.43,5,1.85
	c0.95-0.87,1.83-1.82,2.63-2.84c1.72-2.06,2.37-2.78,3.21-2.93c1.8-0.31,12.61,6.53,14.45,8.08c0.77,0.64,1.28,1.23,1.28,1.98
	C79.52,69.68,67.35,79.52,65.77,79.52z M75.3,47.89c-0.01-12.8-10.39-23.18-23.19-23.19v-4.22C67.24,20.5,79.5,32.76,79.52,47.89
	H75.3z"/>
</svg>
