<?xml version="1.0" encoding="utf-8"?>
<!-- Generator: Adobe Illustrator 24.0.1, SVG Export Plug-In . SVG Version: 6.00 Build 0)  -->
<svg version="1.1" id="Layer_1" xmlns="http://www.w3.org/2000/svg" xmlns:xlink="http://www.w3.org/1999/xlink" x="0px" y="0px"
	 viewBox="0 0 100 100" style="enable-background:new 0 0 100 100;" xml:space="preserve">
<style type="text/css">
	.st0{fill:#FFFFFF;}
</style>
<g>
	<path class="st0" d="M85.35,14.65C76.3,5.6,63.8,0,50,0S23.7,5.6,14.65,14.65C5.6,23.7,0,36.2,0,50c0,27.61,22.39,50,50,50
		c13.8,0,26.3-5.6,35.35-14.65C94.4,76.3,100,63.8,100,50S94.4,23.7,85.35,14.65z M80.86,67.43c0,3.11-2.52,5.68-5.69,5.68H24.83
		c-3.11,0-5.69-2.51-5.69-5.68V39.8c0.14,0.1,0.28,0.2,0.42,0.3l25.28,16.85c1.54,1.03,3.32,1.57,5.16,1.57s3.62-0.54,5.16-1.57
		L80.44,40.1c0.14-0.1,0.28-0.2,0.42-0.3V67.43z M78.44,37.09L53.15,53.95C52.19,54.58,51.1,54.9,50,54.9s-2.19-0.32-3.15-0.95
		L21.56,37.09c-1.51-1.01-2.42-2.7-2.42-4.52c0-3.13,2.55-5.68,5.68-5.68h50.36c3.13,0,5.68,2.55,5.68,5.68
		C80.86,34.39,79.95,36.08,78.44,37.09z"/>
</g>
</svg>
