<?xml version="1.0" encoding="utf-8"?>
<!-- Generator: Adobe Illustrator 24.0.1, SVG Export Plug-In . SVG Version: 6.00 Build 0)  -->
<svg version="1.1" id="Layer_1" xmlns="http://www.w3.org/2000/svg" xmlns:xlink="http://www.w3.org/1999/xlink" x="0px" y="0px"
	 viewBox="0 0 100 100" style="enable-background:new 0 0 100 100;" xml:space="preserve">
<style type="text/css">
	.st0{fill:#FFFFFF;}
	.st1{fill:#1877F2;}
</style>
<g>
	<path class="st0" d="M50,100L50,100C22.39,100,0,77.61,0,50v0C0,22.39,22.39,0,50,0h0c27.61,0,50,22.39,50,50v0
		C100,77.61,77.61,100,50,100z"/>
	<g>
		<g>
			<path class="st1" d="M50,0.5C22.71,0.5,0.5,22.71,0.5,50c0,27.29,22.21,49.5,49.5,49.5c27.29,0,49.5-22.21,49.5-49.5
				C99.5,22.71,77.3,0.5,50,0.5z M62.31,51.74h-8.05v28.7H42.32c0,0,0-15.68,0-28.7h-5.67V41.6h5.67v-6.56
				c0-4.7,2.23-12.04,12.04-12.04l8.84,0.03v9.85c0,0-5.37,0-6.42,0s-2.53,0.52-2.53,2.76v5.96h9.09L62.31,51.74z"/>
		</g>
	</g>
	<g>
		<path class="st0" d="M50,3c25.92,0,47,21.08,47,47c0,25.92-21.08,47-47,47C24.08,97,3,75.92,3,50C3,24.08,24.08,3,50,3 M50,0L50,0
			C22.39,0,0,22.39,0,50v0c0,27.61,22.39,50,50,50h0c27.61,0,50-22.39,50-50v0C100,22.39,77.61,0,50,0L50,0z"/>
	</g>
</g>
</svg>
