<?xml version="1.0" encoding="utf-8"?>
<!-- Generator: Adobe Illustrator 24.0.1, SVG Export Plug-In . SVG Version: 6.00 Build 0)  -->
<svg version="1.1" id="Layer_1" xmlns="http://www.w3.org/2000/svg" xmlns:xlink="http://www.w3.org/1999/xlink" x="0px" y="0px"
	 viewBox="0 0 100 100" style="enable-background:new 0 0 100 100;" xml:space="preserve">
<style type="text/css">
	.st0{fill:#FFFFFF;}
	.st1{fill:#007AB9;}
	.st2{fill:#F1F2F2;}
</style>
<g>
	<path class="st0" d="M50,100L50,100C22.39,100,0,77.61,0,50v0C0,22.39,22.39,0,50,0h0c27.61,0,50,22.39,50,50v0
		C100,77.61,77.61,100,50,100z"/>
	<g>
		<circle class="st1" cx="50" cy="50" r="49.5"/>
		<g>
			<path class="st2" d="M79.58,53.98v20.41H67.74V55.35c0-4.78-1.71-8.05-5.99-8.05c-3.27,0-5.21,2.2-6.07,4.33
				c-0.31,0.76-0.39,1.82-0.39,2.88v19.87H43.46c0,0,0.16-32.25,0-35.59h11.83v5.04c-0.02,0.04-0.06,0.08-0.08,0.12h0.08v-0.12
				c1.57-2.42,4.38-5.88,10.66-5.88C73.74,37.97,79.58,43.05,79.58,53.98L79.58,53.98z M31.08,21.65c-4.05,0-6.7,2.66-6.7,6.15
				c0,3.42,2.57,6.15,6.54,6.15H31c4.13,0,6.69-2.73,6.69-6.15C37.62,24.31,35.13,21.65,31.08,21.65L31.08,21.65z M25.09,74.39
				h11.83V38.8H25.09V74.39z"/>
		</g>
	</g>
	<g>
		<path class="st0" d="M50,3c25.92,0,47,21.08,47,47c0,25.92-21.08,47-47,47C24.08,97,3,75.92,3,50C3,24.08,24.08,3,50,3 M50,0L50,0
			C22.39,0,0,22.39,0,50v0c0,27.61,22.39,50,50,50h0c27.61,0,50-22.39,50-50v0C100,22.39,77.61,0,50,0L50,0z"/>
	</g>
</g>
</svg>
