<?xml version="1.0" encoding="utf-8"?>
<!-- Generator: Adobe Illustrator 24.0.1, SVG Export Plug-In . SVG Version: 6.00 Build 0)  -->
<svg version="1.1" id="Layer_1" xmlns="http://www.w3.org/2000/svg" xmlns:xlink="http://www.w3.org/1999/xlink" x="0px" y="0px"
	 viewBox="0 0 100 100" style="enable-background:new 0 0 100 100;" xml:space="preserve">
<style type="text/css">
	.st0{fill:#FFFFFF;}
</style>
<g>
	<circle class="st0" cx="50" cy="41.67" r="13.89"/>
	<path class="st0" d="M85.35,14.65C76.3,5.6,63.8,0,50,0S23.7,5.6,14.65,14.65C5.6,23.7,0,36.2,0,50c0,27.61,22.39,50,50,50
		c13.8,0,26.3-5.6,35.35-14.65C94.4,76.3,100,63.8,100,50S94.4,23.7,85.35,14.65z M51.39,82.81c-0.4,0.35-0.9,0.52-1.39,0.52
		s-0.99-0.17-1.39-0.52C47.65,81.95,25,61.58,25,41.85c0-13.89,11.22-25.18,25-25.18s25,11.29,25,25.18
		C75,61.58,52.35,81.95,51.39,82.81z"/>
</g>
</svg>
