<?xml version="1.0" encoding="utf-8"?>
<!-- Generator: Adobe Illustrator 24.0.1, SVG Export Plug-In . SVG Version: 6.00 Build 0)  -->
<svg version="1.1" id="Layer_1" xmlns="http://www.w3.org/2000/svg" xmlns:xlink="http://www.w3.org/1999/xlink" x="0px" y="0px"
	 viewBox="0 0 3365 915" style="enable-background:new 0 0 3365 915;" xml:space="preserve">
<style type="text/css">
	.st0{clip-path:url(#XMLID_11_);fill:url(#XMLID_12_);}
	.st1{fill:#FFFFFF;}
	.st2{font-family:'HelveticaNeue-Bold';}
	.st3{font-size:159.8058px;}
</style>
<g>
	<g id="XMLID_138_">
		<defs>
			<path id="XMLID_139_" d="M766.8,60.1c28.2-4.2,57.6-15.8,86.7,8.2c-20.1,11.9-37.3,5.6-54-0.7c-10.9-4.1-21.5-8.2-32.6-7.3
				c-0.2,0-0.4,0-0.5,0c-0.2,0-0.4,0-0.6,0C766.1,60.2,766.4,60.1,766.8,60.1 M729.5,15.4c-0.8,0-1.6,0.1-2.3,0.1
				c-3.8,0.2-7.7,0.1-11.5,0.5C624.5,24.1,540,56.6,458.8,97.7c-37.6,19-73.5,41.6-110.1,62.6c0.8,1.2,1.5,2.5,2.3,3.7
				c74.4-27.2,148.7-54.5,223.1-81.7c0.9,2.3,1.8,4.5,2.7,6.8C441.6,134.3,317.9,200.5,208,292.6C375.2,212,549.1,152.3,729,111
				c15.7-3.6,31.3-7.3,47-10.6c-5,3-10.4,4.8-15.9,6.5c-8.5,2.8-17.1,5.4-25.6,8.2c-93.8,30.1-188.5,57.8-280.2,93.3
				C350,248.7,247.3,295,157,363.7c-35.2,26.8-68,56.8-101.9,85.4c1.4,1.8,2.8,3.6,4.1,5.4c6.1-3.6,12.4-7.1,18.4-10.9
				c164.9-103,335.8-193.3,522.2-250.4c57.3-17.6,115.6-31.6,175.3-31.3c12,0.1,24,0.5,36.2,1.9c40.5,4.5,85.8,5.8,99.1,59.2
				c15.5-10.4,26.3-21.8,33.3-33.5c17.2-28.5,9.8-59.5-24.2-86.4C899,86.9,880.2,70,862.7,50.5c-11.8-13.1-30.3-24.2-47.5-27.4
				c-25-4.6-50.8-7.8-76.3-7.8C735.8,15.3,732.6,15.3,729.5,15.4"/>
		</defs>
		<clipPath id="XMLID_11_">
			<use xlink:href="#XMLID_139_"  style="overflow:visible;"/>
		</clipPath>
		
			<linearGradient id="XMLID_12_" gradientUnits="userSpaceOnUse" x1="1546.8401" y1="533.2722" x2="1552.6165" y2="533.2722" gradientTransform="matrix(155.3928 0 0 -155.3928 -240312.7188 83101.5391)">
			<stop  offset="0" style="stop-color:#FFEF41"/>
			<stop  offset="5.342275e-02" style="stop-color:#FDDC3B"/>
			<stop  offset="0.1261" style="stop-color:#FBC936"/>
			<stop  offset="0.2011" style="stop-color:#FABE32"/>
			<stop  offset="0.2809" style="stop-color:#FABA31"/>
			<stop  offset="0.3754" style="stop-color:#F9B532"/>
			<stop  offset="0.4874" style="stop-color:#F8A737"/>
			<stop  offset="0.6078" style="stop-color:#F58F3E"/>
			<stop  offset="0.6685" style="stop-color:#F38042"/>
			<stop  offset="0.8876" style="stop-color:#EC593E"/>
			<stop  offset="1" style="stop-color:#E8393B"/>
		</linearGradient>
		<rect id="XMLID_142_" x="55.1" y="15.3" class="st0" width="905.9" height="439.2"/>
	</g>
	<path id="XMLID_136_" class="st1" d="M1229.7,281.3h-133.9l-66,311.3H892.1l64-304.8c3.4-16.6,11.5-30.1,24.2-40.5
		c12.7-10.5,27.3-15.7,43.7-15.7h216L1229.7,281.3z"/>
	<path id="XMLID_134_" class="st1" d="M921.7,217.8c-13.2-53.1-58.3-54.4-98.5-58.9c-12.1-1.3-24-1.8-36-1.9
		c-7.7-0.1-15.4,0.8-23.1,1.2l-37.1,177h-119l32.5-155c-9.3,2.6-18.6,5.1-27.8,8c-60.9,18.7-119.9,41.2-177.8,66.2l-69.7,333.2h190
		l38-180.5l218.9,0.9c26.4,0,49.6-8.2,69.4-24.6c19.8-16.4,32.8-38.3,38.8-65.6l25.6-121.8C939.5,203.4,932,210.8,921.7,217.8"/>
	<path id="XMLID_121_" class="st1" d="M1348.4,587.5h-137l75.3-359.2h137L1348.4,587.5z M1432.1,188H1295l10.3-49.4h137L1432.1,188z
		"/>
	<path id="XMLID_118_" class="st1" d="M1760.2,587.5h-136.4l65.6-309.7h-74l-65.6,309.7h-137.1l75.9-359.2h292.1
		c16.3,0,28.4,5.2,36.4,15.6c7.9,10.4,10.2,23.9,6.8,40.3L1760.2,587.5z"/>
	<path id="XMLID_89_" class="st1" d="M1919.8,587.5c-21,0-36.6-6.4-46.6-19.2c-10.1-12.8-12.8-29.8-8-51.1l50.2-239.4H1849
		l10.3-49.4h66.3l18.7-89.8h137.1l-18.7,89.8h66.9l-10.3,49.4h-66.9L1997.7,538h66.9l-10.3,49.4H1919.8z"/>
	<path id="XMLID_23_" class="st1" d="M2554.2,321.4c-2.1,8.7-6.8,16.9-13.8,24.7c-7.1,7.8-14.9,13.5-23.5,16.9
		c6.8,3.9,12.3,9.8,16.4,17.6c4.1,7.8,5,16.1,2.9,24.7L2513,517.2c-4.7,21.3-14.8,38.3-30.2,51.1c-15.4,12.8-33.5,19.2-54,19.2
		h-319.1l93.9-449h319.1c21,0,36.6,6.4,46.7,19.2c10.1,12.8,12.8,29.8,8,51.1L2554.2,321.4z M2298.8,391l-29.6,140.5h92.7
		l29.6-140.5H2298.8z M2340,194.5L2310.4,335h92.7l29.6-140.5H2340z"/>
	<path id="XMLID_5_" class="st1" d="M2899.7,587.5h-277.3c-21,0-36.6-6.4-46.6-19.2c-10.1-12.8-12.8-29.8-8-51.1l27.7-133.4
		c3.4-16.5,11.4-29.9,23.8-40.3c12.4-10.4,26.8-15.6,43.1-15.6H2818l10.9-50.1h-142.8l10.3-49.4h223.9c16.3,0,28.4,5.2,36.4,15.6
		c7.9,10.4,10.2,23.9,6.8,40.3L2899.7,587.5z M2733.7,378L2699.6,538h74l34.1-160.1H2733.7z"/>
	<polygon id="XMLID_3_" class="st1" points="3292.9,273.2 3103,542.6 3236.2,542.6 3226.6,587.5 2956.3,587.5 2966,542.6 
		3155.8,273.2 3022.6,273.2 3032.3,228.3 3302.5,228.3 	"/>
	<g id="XMLID_2_">
		<text transform="matrix(1 0 0 1 339.3232 865.0615)" class="st1 st2 st3">One stop printing &amp; packaging solution</text>
	</g>
</g>
</svg>
