<?xml version="1.0" encoding="utf-8"?>
<!-- Generator: Adobe Illustrator 24.0.1, SVG Export Plug-In . SVG Version: 6.00 Build 0)  -->
<svg version="1.1" id="Layer_1" xmlns="http://www.w3.org/2000/svg" xmlns:xlink="http://www.w3.org/1999/xlink" x="0px" y="0px"
	 viewBox="0 0 150 100" style="enable-background:new 0 0 150 100;" xml:space="preserve">
<style type="text/css">
	.st0{fill-rule:evenodd;clip-rule:evenodd;fill:#FFFFFF;}
	.st1{fill:#ED1B2E;}
	.st2{fill:#FCB131;}
	.st3{fill:#003473;}
	.st4{fill:#FFFFFF;}
</style>
<g>
	<path class="st0" d="M145,100H5c-2.76,0-5-2.24-5-5V5c0-2.76,2.24-5,5-5h140c2.76,0,5,2.24,5,5v90C150,97.76,147.76,100,145,100z"
		/>
	<g>
		<g>
			<g>
				<path class="st1" d="M86.31,50c0,19-15.4,34.4-34.4,34.4C32.9,84.4,17.5,69,17.5,50S32.9,15.6,51.91,15.6
					C70.91,15.6,86.31,31,86.31,50z"/>
				<g>
					<path class="st2" d="M98.1,15.6c-8.89,0-16.99,3.37-23.1,8.91c-1.24,1.13-2.4,2.35-3.47,3.64h6.95
						c0.95,1.16,1.82,2.37,2.62,3.64H68.9c-0.73,1.17-1.39,2.39-1.98,3.64h16.16c0.55,1.18,1.04,2.4,1.46,3.64H65.46
						c-0.4,1.19-0.73,2.4-1,3.64h21.07c0.51,2.35,0.77,4.79,0.77,7.29c0,3.82-0.62,7.5-1.77,10.93H65.46
						c0.42,1.25,0.9,2.46,1.46,3.64h16.16c-0.59,1.26-1.25,2.47-1.98,3.64H68.9c0.8,1.27,1.67,2.49,2.62,3.64h6.95
						c-1.07,1.3-2.23,2.52-3.48,3.64c6.11,5.53,14.2,8.9,23.1,8.9c19,0,34.4-15.4,34.4-34.4C132.5,31,117.1,15.6,98.1,15.6z"/>
				</g>
			</g>
			<path class="st2" d="M127.91,69.18c0-0.61,0.5-1.11,1.11-1.11c0.61,0,1.11,0.5,1.11,1.11c0,0.61-0.5,1.11-1.11,1.11
				C128.41,70.29,127.91,69.79,127.91,69.18z M129.03,70.02c0.46,0,0.84-0.38,0.84-0.85c0-0.47-0.38-0.84-0.84-0.84
				c-0.47,0-0.85,0.38-0.85,0.84C128.18,69.64,128.56,70.02,129.03,70.02z M128.88,69.67h-0.23v-0.97h0.41c0.09,0,0.17,0,0.25,0.05
				c0.08,0.05,0.12,0.15,0.12,0.24c0,0.11-0.06,0.21-0.17,0.25l0.18,0.43h-0.25l-0.15-0.39h-0.17V69.67z M128.88,69.11H129
				c0.05,0,0.1,0,0.14-0.02c0.04-0.02,0.06-0.07,0.06-0.11c0-0.04-0.02-0.08-0.06-0.1c-0.04-0.02-0.1-0.02-0.15-0.02h-0.12V69.11z"
				/>
		</g>
		<g>
			<g>
				<path class="st3" d="M43.87,53.77c-0.39-0.05-0.56-0.06-0.83-0.06c-2.12,0-3.19,0.73-3.19,2.16c0,0.88,0.52,1.44,1.34,1.44
					C42.71,57.31,43.81,55.87,43.87,53.77z M46.59,60.09c-0.5,0-3.1,0-3.1,0l0.07-1.47c-0.94,1.16-2.2,1.72-3.91,1.72
					c-2.02,0-3.41-1.58-3.41-3.88c0-3.46,2.41-5.47,6.56-5.47c0.42,0,0.97,0.04,1.52,0.11c0.12-0.47,0.15-0.67,0.15-0.92
					c0-0.94-0.65-1.29-2.39-1.29c-1.83-0.02-3.33,0.44-3.95,0.64c0.04-0.24,0.52-3.19,0.52-3.19c1.86-0.55,3.09-0.75,4.47-0.75
					c3.21,0,4.91,1.44,4.9,4.16c0.01,0.73-0.11,1.63-0.3,2.81C47.38,54.61,46.68,59.02,46.59,60.09z"/>
				<polygon class="st3" points="34.67,60.09 30.94,60.09 33.08,46.68 28.3,60.09 25.76,60.09 25.44,46.75 23.19,60.09 19.7,60.09 
					22.62,42.64 27.99,42.64 28.31,52.41 31.59,42.64 37.56,42.64 				"/>
				<path class="st3" d="M102.71,53.77c-0.39-0.05-0.56-0.06-0.83-0.06c-2.12,0-3.19,0.73-3.19,2.16c0,0.88,0.52,1.44,1.34,1.44
					C101.55,57.31,102.65,55.87,102.71,53.77z M105.43,60.09c-0.5,0-3.09,0-3.09,0l0.07-1.47c-0.94,1.16-2.2,1.72-3.91,1.72
					c-2.03,0-3.41-1.58-3.41-3.88c0-3.46,2.41-5.47,6.56-5.47c0.42,0,0.97,0.04,1.52,0.11c0.12-0.47,0.15-0.67,0.15-0.92
					c0-0.94-0.65-1.29-2.39-1.29c-1.83-0.02-3.33,0.44-3.96,0.64c0.04-0.24,0.52-3.19,0.52-3.19c1.86-0.55,3.09-0.75,4.47-0.75
					c3.21,0,4.91,1.44,4.9,4.16c0.01,0.73-0.11,1.63-0.3,2.81C106.22,54.61,105.52,59.02,105.43,60.09z"/>
				<path class="st3" d="M63.19,59.88c-1.02,0.32-1.82,0.46-2.68,0.46c-1.91,0-2.95-1.1-2.95-3.12c-0.03-0.63,0.27-2.28,0.51-3.78
					c0.22-1.33,1.62-9.68,1.62-9.68h3.71l-0.43,2.15h2.24l-0.51,3.41h-2.25c-0.43,2.7-1.05,6.06-1.05,6.51
					c0,0.73,0.39,1.05,1.28,1.05c0.43,0,0.75-0.04,1.01-0.13L63.19,59.88z"/>
				<path class="st3" d="M74.57,59.76c-1.28,0.39-2.5,0.58-3.81,0.58c-4.16,0-6.32-2.17-6.32-6.33c0-4.85,2.76-8.42,6.5-8.42
					c3.06,0,5.02,2,5.02,5.13c0,1.04-0.13,2.06-0.46,3.49H68.1c-0.25,2.06,1.07,2.92,3.23,2.92c1.33,0,2.53-0.27,3.86-0.89
					L74.57,59.76z M72.48,51.35c0.02-0.3,0.39-2.53-1.73-2.53c-1.18,0-2.03,0.9-2.37,2.53H72.48z"/>
				<path class="st3" d="M48.83,50.39c0,1.79,0.87,3.03,2.84,3.96c1.51,0.71,1.75,0.92,1.75,1.57c0,0.88-0.67,1.29-2.14,1.29
					c-1.12,0-2.15-0.17-3.35-0.56c0,0-0.49,3.13-0.51,3.28c0.85,0.18,1.61,0.36,3.89,0.42c3.94,0,5.76-1.5,5.76-4.74
					c0-1.95-0.76-3.09-2.63-3.96c-1.57-0.72-1.75-0.88-1.75-1.54c0-0.77,0.62-1.16,1.83-1.16c0.73,0,1.73,0.08,2.68,0.21l0.53-3.29
					c-0.97-0.15-2.43-0.28-3.29-0.28C50.26,45.58,48.81,47.76,48.83,50.39z"/>
				<path class="st3" d="M92.74,45.96c1.04,0,2.01,0.27,3.34,0.94l0.61-3.79c-0.55-0.22-2.47-1.48-4.11-1.48
					c-2.5,0-4.61,1.24-6.1,3.29c-2.17-0.72-3.06,0.73-4.15,2.18l-0.97,0.23c0.07-0.48,0.14-0.95,0.12-1.43h-3.43
					c-0.47,4.39-1.3,8.84-1.95,13.24l-0.17,0.95h3.74c0.62-4.05,0.96-6.65,1.17-8.4l1.41-0.78c0.21-0.78,0.87-1.05,2.19-1.01
					c-0.17,0.92-0.27,1.9-0.27,2.91c0,4.64,2.51,7.53,6.53,7.53c1.04,0,1.92-0.14,3.3-0.51l0.66-3.98c-1.24,0.61-2.25,0.9-3.17,0.9
					c-2.17,0-3.48-1.6-3.48-4.25C87.99,48.65,89.95,45.96,92.74,45.96z"/>
				<path class="st3" d="M124.36,42.64l-0.83,5.04c-1.02-1.34-2.12-2.32-3.57-2.32c-1.88,0-3.6,1.43-4.72,3.53
					c-1.56-0.32-3.18-0.88-3.18-0.88l0,0.01c0.12-1.18,0.18-1.89,0.17-2.14h-3.43c-0.47,4.39-1.3,8.84-1.95,13.24l-0.17,0.95h3.74
					c0.51-3.28,0.89-6,1.17-8.15c1.28-1.15,1.92-2.16,3.21-2.09c-0.57,1.38-0.9,2.97-0.9,4.6c0,3.55,1.79,5.89,4.51,5.89
					c1.37,0,2.42-0.47,3.44-1.57l-0.18,1.32h3.53l2.84-17.45H124.36z M119.69,56.81c-1.27,0-1.91-0.94-1.91-2.8
					c0-2.79,1.2-4.77,2.9-4.77c1.28,0,1.98,0.98,1.98,2.78C122.65,54.84,121.43,56.81,119.69,56.81z"/>
			</g>
			<g>
				<polygon class="st4" points="35.75,59.06 32.01,59.06 34.15,45.64 29.38,59.06 26.83,59.06 26.52,45.72 24.27,59.06 
					20.77,59.06 23.69,41.61 29.06,41.61 29.21,52.41 32.84,41.61 38.64,41.61 				"/>
				<path class="st4" d="M44.95,52.73c-0.39-0.05-0.56-0.06-0.83-0.06c-2.12,0-3.19,0.73-3.19,2.16c0,0.88,0.52,1.45,1.34,1.45
					C43.79,56.28,44.88,54.83,44.95,52.73z M47.66,59.06c-0.5,0-3.09,0-3.09,0l0.07-1.47c-0.94,1.16-2.2,1.72-3.91,1.72
					c-2.02,0-3.41-1.58-3.41-3.88c0-3.46,2.41-5.47,6.56-5.47c0.42,0,0.97,0.04,1.52,0.11c0.12-0.47,0.15-0.67,0.15-0.92
					c0-0.94-0.65-1.29-2.4-1.29c-1.83-0.02-3.33,0.43-3.95,0.64c0.04-0.24,0.52-3.19,0.52-3.19c1.86-0.55,3.09-0.75,4.47-0.75
					c3.21,0,4.91,1.44,4.9,4.16c0.01,0.73-0.11,1.63-0.3,2.81C48.45,53.57,47.76,57.98,47.66,59.06z"/>
				<path class="st4" d="M97.76,42.08l-0.61,3.79c-1.33-0.67-2.3-0.94-3.34-0.94c-2.79,0-4.74,2.7-4.74,6.54
					c0,2.65,1.31,4.25,3.49,4.25c0.92,0,1.94-0.28,3.17-0.9l-0.66,3.98c-1.38,0.37-2.26,0.51-3.3,0.51c-4.02,0-6.53-2.89-6.53-7.53
					c0-6.24,3.46-10.6,8.41-10.6C95.29,41.17,97.21,41.86,97.76,42.08z"/>
				<path class="st4" d="M103.79,52.73c-0.39-0.05-0.56-0.06-0.83-0.06c-2.12,0-3.19,0.73-3.19,2.16c0,0.88,0.52,1.45,1.34,1.45
					C102.62,56.28,103.72,54.83,103.79,52.73z M106.5,59.06c-0.5,0-3.09,0-3.09,0l0.07-1.47c-0.94,1.16-2.2,1.72-3.91,1.72
					c-2.03,0-3.41-1.58-3.41-3.88c0-3.46,2.41-5.47,6.56-5.47c0.42,0,0.97,0.04,1.52,0.11c0.12-0.47,0.15-0.67,0.15-0.92
					c0-0.94-0.65-1.29-2.39-1.29c-1.83-0.02-3.33,0.43-3.95,0.64c0.04-0.24,0.52-3.19,0.52-3.19c1.86-0.55,3.09-0.75,4.47-0.75
					c3.21,0,4.91,1.44,4.9,4.16c0.01,0.73-0.11,1.63-0.3,2.81C107.29,53.57,106.6,57.98,106.5,59.06z"/>
				<path class="st4" d="M64.26,58.84c-1.02,0.32-1.82,0.46-2.68,0.46c-1.91,0-2.95-1.1-2.95-3.12c-0.03-0.63,0.28-2.28,0.51-3.78
					c0.22-1.33,1.62-9.69,1.62-9.69h3.71l-0.43,2.15h1.91l-0.51,3.41h-1.91c-0.43,2.7-1.05,6.06-1.05,6.51
					c0,0.73,0.39,1.05,1.28,1.05c0.43,0,0.75-0.04,1.01-0.13L64.26,58.84z"/>
				<path class="st4" d="M75.65,58.73c-1.28,0.39-2.51,0.58-3.81,0.57c-4.16,0-6.32-2.17-6.32-6.33c0-4.85,2.76-8.42,6.5-8.42
					c3.06,0,5.02,2,5.02,5.14c0,1.04-0.14,2.06-0.46,3.49h-7.39c-0.25,2.06,1.07,2.92,3.23,2.92c1.33,0,2.53-0.27,3.86-0.9
					L75.65,58.73z M73.56,50.31c0.02-0.3,0.39-2.53-1.73-2.53c-1.18,0-2.03,0.9-2.37,2.53H73.56z"/>
				<path class="st4" d="M49.9,49.35c0,1.8,0.87,3.03,2.85,3.96c1.51,0.71,1.75,0.92,1.75,1.57c0,0.88-0.67,1.28-2.14,1.28
					c-1.11,0-2.15-0.17-3.35-0.56c0,0-0.49,3.13-0.51,3.28c0.85,0.19,1.61,0.36,3.89,0.42c3.94,0,5.76-1.5,5.76-4.74
					c0-1.95-0.76-3.09-2.63-3.95c-1.57-0.72-1.75-0.88-1.75-1.54c0-0.77,0.62-1.16,1.83-1.16c0.73,0,1.73,0.08,2.68,0.22l0.53-3.29
					c-0.97-0.15-2.43-0.28-3.29-0.28C51.34,44.55,49.89,46.73,49.9,49.35z"/>
				<path class="st4" d="M126.27,59.06h-3.53l0.17-1.32c-1.02,1.09-2.07,1.57-3.44,1.57c-2.71,0-4.51-2.34-4.51-5.89
					c0-4.72,2.78-8.7,6.08-8.7c1.45,0,2.55,0.59,3.57,1.94l0.83-5.04h3.68L126.27,59.06z M120.76,55.78c1.74,0,2.96-1.97,2.96-4.78
					c0-1.8-0.7-2.78-1.98-2.78c-1.69,0-2.9,1.98-2.9,4.77C118.85,54.84,119.49,55.78,120.76,55.78z"/>
				<path class="st4" d="M109.87,44.86c-0.47,4.39-1.3,8.84-1.95,13.24l-0.17,0.95h3.74c1.34-8.68,1.66-10.37,3.75-10.16
					c0.33-1.78,0.95-3.33,1.42-4.12c-1.56-0.33-2.44,0.56-3.58,2.24c0.09-0.73,0.26-1.43,0.22-2.15H109.87z"/>
				<path class="st4" d="M79.12,44.86c-0.47,4.39-1.3,8.84-1.95,13.24L77,59.06h3.74c1.34-8.68,1.66-10.37,3.75-10.16
					c0.34-1.78,0.96-3.33,1.42-4.12c-1.56-0.33-2.44,0.56-3.58,2.24c0.09-0.73,0.26-1.43,0.22-2.15H79.12z"/>
				<g>
					<path class="st4" d="M127.91,57.94c0-0.62,0.5-1.11,1.11-1.11c0.61,0,1.11,0.5,1.11,1.11c0,0.61-0.5,1.11-1.11,1.11
						C128.41,59.06,127.91,58.56,127.91,57.94z M129.02,58.79c0.47,0,0.85-0.38,0.85-0.84c0-0.47-0.38-0.85-0.85-0.85
						c-0.47,0-0.84,0.38-0.84,0.85C128.18,58.41,128.56,58.79,129.02,58.79z M128.87,58.43h-0.23v-0.97h0.41
						c0.09,0,0.17,0,0.25,0.05c0.08,0.05,0.12,0.15,0.12,0.24c0,0.11-0.06,0.21-0.17,0.25l0.18,0.43h-0.25l-0.15-0.39h-0.17V58.43z
						 M128.87,57.88H129c0.05,0,0.1,0,0.14-0.02c0.04-0.02,0.06-0.07,0.06-0.11c0-0.04-0.02-0.08-0.05-0.1
						c-0.04-0.02-0.1-0.02-0.15-0.02h-0.12V57.88z"/>
				</g>
			</g>
		</g>
	</g>
</g>
</svg>
