<?xml version="1.0" encoding="utf-8"?>
<!-- Generator: Adobe Illustrator 24.0.1, SVG Export Plug-In . SVG Version: 6.00 Build 0)  -->
<svg version="1.1" id="Layer_1" xmlns="http://www.w3.org/2000/svg" xmlns:xlink="http://www.w3.org/1999/xlink" x="0px" y="0px"
	 viewBox="0 0 150 100" style="enable-background:new 0 0 150 100;" xml:space="preserve">
<style type="text/css">
	.st0{fill-rule:evenodd;clip-rule:evenodd;fill:#FFFFFF;}
	.st1{fill:#ED1C24;}
	.st2{fill:#F7941D;}
</style>
<path class="st0" d="M145,100H5c-2.8,0-5-2.2-5-5V5c0-2.8,2.2-5,5-5h140c2.8,0,5,2.2,5,5v90C150,97.8,147.8,100,145,100z"/>
<g id="g1438" transform="matrix(2.5947207,0,0,2.5947207,-1266.1935,-110.29467)">
	<g id="g1406" transform="translate(481.98836,41.407337)">
		<g id="g1390">
			<path id="path1386" class="st1" d="M41.5,18.2h-7.9c-0.2,0-0.2,0.1-0.2,0.2V19c0,0.2,0.1,0.2,0.2,0.2h5.9v3.3
				c-0.2-0.2-0.4-0.5-0.5-0.7c-0.7-0.7-1.5-1.1-2.2-1.1c-0.6,0-1.1,0.3-1.6,0.9c-0.4,0.5-0.5,1-0.5,1.5c0,0.5,0.1,1.2,0.5,1.8
				c0.5,0.7,1.3,1,2,1c0.9,0,1.6-0.6,1.6-1.5c0-0.5-0.2-0.9-0.7-1.1l-0.4-0.2v0.5c0,0,0,0.1,0,0.1s0,0.1,0,0.1
				c0,0.2-0.4,0.5-0.7,0.5c-0.3,0-0.6-0.1-0.8-0.3c-0.1-0.1-0.2-0.4-0.2-0.5c0-0.2,0.1-0.4,0.2-0.6c0.2-0.2,0.4-0.4,0.7-0.4
				c0.8,0,1.5,0.4,2,1.1c0.4,0.7,0.7,1.3,0.7,2v1.6l1.2,0.7c0,0,0.1,0,0.1,0c0.2,0,0.2-0.1,0.2-0.2l0,0v-8.5h0.5
				c0.2,0,0.2-0.1,0.2-0.2v-0.6C41.8,18.3,41.7,18.2,41.5,18.2z"/>
			<path id="path1388" class="st1" d="M57.4,18.2h-7.1h-0.9h-2c-0.2,0-0.2,0.1-0.2,0.2l0,0v1.1c-1-1-1.8-1.5-2.6-1.5
				c-0.7,0-1.4,0.2-1.9,0.6c-0.5,0.4-0.8,0.9-0.8,1.5c0,1.8,2,1.7,2.5,1.5c0.1,0,0.2-0.1,0.3-0.1c0.4,0,0.5,0.3,0.5,0.6
				c0,0.4-0.6,0.7-1.3,0.7c-0.4,0-0.6-0.1-0.8-0.4l-0.3-0.5l-0.2,0.5c0,0.1-0.1,0.3-0.1,0.5c0,0.4,0.2,0.8,0.6,1.1
				c0.4,0.3,0.8,0.5,1.3,0.5c0.7,0,1.4-0.3,1.8-0.8c0.4-0.4,0.5-0.9,0.5-1.5c0-0.3-0.1-0.7-0.4-1.1c-0.3-0.5-0.7-0.7-1.1-0.7
				c-0.2,0-0.4,0-0.5,0.1c-0.1,0-0.2,0.1-0.3,0.1c-0.1,0-0.2,0-0.3-0.2c-0.1-0.1-0.2-0.2-0.2-0.4c0-0.4,0.4-0.9,1.1-0.9h0
				c0.5,0,0.9,0.2,1.4,0.7c0.4,0.4,0.6,0.7,0.9,1.1v6.2l1.2,0.7c0,0,0.1,0,0.1,0c0.2,0,0.2-0.1,0.2-0.2l0,0v-8.4h0.7h0.9h0.1v5.5
				l1.4,0.6c0,0,0.1,0,0.1,0c0.1,0,0.2-0.1,0.2-0.2v0c0.2-1.6,0.9-2.7,2.1-3.4c0,0.1,0,0.2,0,0.3c0,0.2,0,0.8,0,1.1
				c0,0.2,0,0.3,0,0.4l0,0c0,0.6,0.1,1.6,0.3,2.3c0.4,1.3,1.1,1.6,1.5,1.6h0c0.3,0,0.5-0.1,0.7-0.2c0.1-0.1,0.2-0.2,0.2-0.5
				c0-0.2,0-0.4-0.1-0.6L56.8,26l-0.2,0c-0.2,0.1-0.4,0.1-0.4,0h0c-0.1,0-0.1,0-0.1,0c-0.1,0-0.2-0.2-0.4-0.6
				c-0.1-0.3-0.1-0.7-0.1-1c0-1.8,0.4-3.1,0.9-3.4h0c0.1,0,0.2-0.1,0.2-0.2c0,0,0-0.1,0-0.1v0c-0.3-0.5-0.9-0.9-1.6-1.1h-0.1h-0.1
				c-0.6,0.1-1.4,0.5-2.3,1.3c-0.2,0.2-0.5,0.4-0.7,0.6v-2.2h5.5c0.2,0,0.2-0.1,0.2-0.2v-0.6C57.6,18.3,57.5,18.2,57.4,18.2
				L57.4,18.2z"/>
		</g>
		<path id="path1392" class="st1" d="M30.7,21.1c0,0.3,0,0.5,0,0.7c-0.1,1.1-0.4,2.1-0.8,3.1c-0.2,0.4-0.4,0.7-0.6,1.1
			c-1.6,2.6-4.6,4.3-7.9,4.3c-1.4,0-2.7-0.3-3.9-0.9c-3.1-1.5-5.3-4.7-5.3-8.4c0-3.7,2.1-6.8,5.1-8.3c-0.2,0.3-0.5,0.6-0.7,1
			c0,0,0,0,0,0.1l0,0c-0.1,0.1-0.2,0.2-0.4,0.3c-0.2,0.1-0.3,0.3-0.4,0.4c0,0-0.1,0.1-0.1,0.1c0,0-0.1,0.1-0.1,0.1
			c0,0-0.1,0.1-0.2,0.2c-0.1,0.1-0.2,0.2-0.3,0.4c-0.4,0.5-0.7,1.1-0.9,1.6c0,0,0,0.1-0.1,0.2c0,0.1,0,0.2-0.1,0.2c0,0,0,0.1,0,0.1
			c0,0.1-0.1,0.2-0.1,0.3c0,0.1,0,0.2-0.1,0.2c0,0,0,0.1,0,0.1c0,0.1,0,0.2,0,0.2c0,0.2-0.1,0.5-0.1,0.7c0,0.1,0,0.1,0,0.2
			c0,0,0,0.1,0,0.2c0,0.1,0,0.2,0,0.2l0,0c0,0.1,0,0.2,0,0.2c0,0.1,0,0.2,0,0.4c0,2.5,1.1,4.8,3,6.2c1.4,1.1,3.2,1.8,5.1,1.8
			c1.8,0,3.4-0.5,4.7-1.5c1-0.7,1.8-1.6,2.4-2.7c0.1-0.2,0.2-0.3,0.2-0.4l0,0l0,0c0.5-1,0.7-2,0.7-3.2c0-0.1,0-0.2,0-0.3
			c0-0.3,0-0.5,0-0.8l0,0c0.1,0.1,0.2,0.2,0.4,0.3c0.1-0.2,0.2-0.4,0.4-0.5c0.1,0.4,0.1,0.7,0.2,1.1C30.7,20.5,30.7,20.8,30.7,21.1
			L30.7,21.1z"/>
		<path id="path1394" class="st2" d="M22.6,13.6l-1.7-3.2C18,11.7,16,14.6,16,18c0,1.7,0.5,3.3,1.4,4.6c-0.1-0.4-0.1-0.9-0.1-1.3
			C17.3,17.8,19.5,14.9,22.6,13.6z"/>
		<path id="path1396" class="st1" d="M23.9,15.2c0.7-0.2,1.5-0.3,2.2-0.3c0.5,0,1,0,1.4,0.1l0-1.4l-0.1-2.8c-0.3,0-0.7-0.1-1-0.1
			c-1.6,0-3,0.5-4.2,1.3l0.9,1.7c-1.7,0.6-3.1,1.8-3.9,3.3c-0.4,0.7-0.7,1.6-0.9,2.5c0.2-0.5,0.5-0.9,0.8-1.3
			C20.4,16.8,22,15.7,23.9,15.2z"/>
		<path id="path1398" class="st2" d="M28.1,13.6l0.1,2c-0.7-0.2-1.3-0.3-2.1-0.3c-1.4,0-2.7,0.4-3.8,1.1c-1.4,0.9-2.5,2.2-3.1,3.8
			c0.5-0.7,1.2-1.4,2-1.9c1.1-0.7,2.5-1.2,4-1.2c1.1,0,2.1,0.2,3.1,0.7c0.7,0.3,1.3,0.7,1.9,1.3l1.1-1.6l1.4-2.2
			C31.4,14.2,29.8,13.6,28.1,13.6z"/>
		<path id="path1400" class="st2" d="M29.8,20.1c0,0.1,0,0.2,0,0.3c0,1.6-0.7,3-0.7,3.2l0,0l0,0c-0.1,0.2-0.2,0.3-0.2,0.4
			c-0.6,1.1-1.4,2-2.4,2.7c-1.3,0.9-2.9,1.5-4.7,1.5c-1.9,0-3.7-0.7-5.1-1.8c-1.8-1.5-3-3.7-3-6.2c0-0.1,0-0.2,0-0.4
			c0-0.1,0-0.2,0-0.2l0,0c0-0.1,0-0.2,0-0.2s0-0.1,0-0.2s0-0.1,0-0.2c0-0.2,0.1-0.5,0.1-0.7c0-0.1,0-0.2,0-0.2c0,0,0-0.1,0-0.1
			c0-0.1,0-0.2,0.1-0.2c0-0.1,0.1-0.2,0.1-0.3c0,0,0-0.1,0-0.1c0-0.1,0-0.2,0.1-0.2s0-0.1,0.1-0.2c0.2-0.6,0.6-1.1,0.9-1.6
			c0.1-0.1,0.2-0.2,0.3-0.4c0,0,0.1-0.1,0.2-0.2c0,0,0-0.1,0.1-0.1c0,0,0-0.1,0.1-0.1c0.1-0.2,0.3-0.3,0.4-0.4
			c0.1-0.1,0.2-0.2,0.4-0.3l0,0c0,0,0,0,0,0.1s0,0.1,0,0.1c-0.5,0.9-0.8,2.1-0.9,3.3c0,0.3,0,0.6,0,1c0,4.2,2.5,7.7,5.5,7.7h0
			c0.1,0,0.2,0,0.3,0c0.4,0,0.9-0.1,1.3-0.2c2.1-0.5,3.6-2.5,3.6-4.7c0,0,0-0.1,0-0.1c0-1.3-0.6-2.6-1.5-3.4c0.6,0,1.3,0.1,1.8,0.3
			c1.1,0.3,2.2,0.8,3.1,1.5l0,0C29.8,19.6,29.8,19.9,29.8,20.1z"/>
		<g id="g1404">
			<path id="path1402" class="st2" d="M29.8,20.1c0,0.1,0,0.2,0,0.3c0,1.7-0.8,3.2-0.8,3.2c-0.1,0.2-0.2,0.3-0.2,0.4
				c-0.6,1.1-1.4,2-2.4,2.7c-1.4,1-3,1.5-4.8,1.5c-1.9,0-3.7-0.7-5.1-1.8c-1.9-1.5-3-3.8-3-6.3s1.1-4.8,3-6.3l0.1-0.1c0,0,0,0,0,0.1
				c0,0,0,0,0,0.1c-1.8,1.5-2.9,3.8-2.9,6.2s1.1,4.7,2.9,6.2c1.4,1.2,3.3,1.8,5.1,1.8c1.7,0,3.3-0.5,4.7-1.5c1-0.7,1.8-1.6,2.4-2.7
				c0.1-0.2,0.2-0.3,0.2-0.4c0,0,0.8-1.5,0.8-3.2c0-0.1,0-0.2,0-0.3c0-0.3,0-0.5,0-0.8v0l0,0l0,0C29.8,19.6,29.8,19.9,29.8,20.1z"/>
		</g>
	</g>
</g>
</svg>
