<?xml version="1.0" encoding="utf-8"?>
<!-- Generator: Adobe Illustrator 24.0.1, SVG Export Plug-In . SVG Version: 6.00 Build 0)  -->
<svg version="1.1" id="Layer_1" xmlns="http://www.w3.org/2000/svg" xmlns:xlink="http://www.w3.org/1999/xlink" x="0px" y="0px"
	 viewBox="0 0 150 100" style="enable-background:new 0 0 150 100;" xml:space="preserve">
<style type="text/css">
	.st0{fill-rule:evenodd;clip-rule:evenodd;fill:#FFFFFF;}
	.st1{fill-rule:evenodd;clip-rule:evenodd;fill:#8B3392;}
	.st2{fill:#8B3392;}
</style>
<g>
	<path class="st0" d="M145,100H5c-2.76,0-5-2.24-5-5V5c0-2.76,2.24-5,5-5h140c2.76,0,5,2.24,5,5v90C150,97.76,147.76,100,145,100z"
		/>
	<g>
		<polygon class="st1" points="102.97,23.19 85.97,40.18 87.17,49.72 90.3,43.16 99.98,55.53 113.55,13.8 68.38,32.58 80.61,38.99 
					"/>
		<g>
			<path class="st2" d="M88.21,53c0,0-14.39,0-17.89,0c-13.64,2.09-15.05,21.91-0.15,24.59h18.04V59.71
				c6.01,0.2,7.25,7.7,2.83,10.43c0.89,1.04,4.47,4.92,4.47,4.92C104.9,66.96,99.54,53.65,88.21,53z M81.66,70.89c0,0-9.24,0-9.99,0
				c-6.19,0.37-8.2-9.84-0.6-11.18c2.24,0,10.58,0,10.58,0V70.89z"/>
		</g>
		<path class="st1" d="M125.62,61.94c-2.98,0-6.56,0-6.56,0l-2.83,6.56c0,0,7.6,0,8.35,0c1.68-0.07,1.75,2.38,0,2.53
			c-2.16,0-14.46,0-14.46,0V59.71h22.21V53c0,0-3.09,0-3.28,0c-0.97-13.86-17.55-14.27-21.91-6.71c0.86,0.71,4.92,4.32,4.92,4.32
			c2.5-3.91,9.43-3.73,10.43,2.39h-18.93v24.59h21.32c4.84-0.07,7.08-3.65,7.6-6.71C132.78,65.97,129.8,62.69,125.62,61.94z"/>
		<path class="st1" d="M61.83,53h-8.65c-2.76,3.35-7.53,16.92,1.94,27.13c0,0,4.1-3.5,4.92-4.17C57.13,73.12,52.29,61.57,61.83,53z"
			/>
		<path class="st1" d="M39.82,80.36c0,2.99-2.43,5.42-5.42,5.42c-2.99,0-5.42-2.43-5.42-5.42c0-2.99,2.43-5.42,5.42-5.42
			C37.39,74.95,39.82,77.37,39.82,80.36z"/>
		<g>
			<g>
				<path class="st1" d="M28.29,53c-13.64,2.09-15.05,21.91-0.15,24.59h0.1c1.06-2.35,3.42-3.99,6.16-3.99
					c2.74,0,5.1,1.64,6.16,3.99h5.61c0-0.82,0-24.59,0-24.59S31.79,53,28.29,53z M39.62,70.89c0,0-9.24,0-9.99,0
					c-6.19,0.37-8.2-9.84-0.6-11.18c2.24,0,10.58,0,10.58,0V70.89z"/>
			</g>
		</g>
		<g>
			<g>
				<g>
					<path class="st1" d="M34.7,47.19c2.2-0.37,3.28-4.88-0.3-5.89c-0.41,0-5.81,0-5.81,0v8.57h2.38v-2.68l2.68,2.68h3.73
						L34.7,47.19z M34.41,44.16c0,0.31-0.25,0.56-0.56,0.56H31v-1.19h2.85c0.31,0,0.56,0.25,0.56,0.56V44.16z"/>
				</g>
			</g>
			<g>
				<g>
					<path class="st1" d="M41.53,41.16c-2.4,0-4.34,1.94-4.34,4.34c0,2.4,1.94,4.34,4.34,4.34c2.4,0,4.34-1.94,4.34-4.34
						C45.88,43.11,43.93,41.16,41.53,41.16z M41.53,47.41c-1.05,0-1.91-0.85-1.91-1.91c0-1.05,0.85-1.91,1.91-1.91
						c1.05,0,1.91,0.85,1.91,1.91C43.44,46.56,42.59,47.41,41.53,47.41z"/>
				</g>
			</g>
			<path class="st1" d="M66.17,43.63h3.9v-2.52h-3.3c-2.6,0-4.72,1.96-4.72,4.36c0,2.4,2.12,4.36,4.72,4.36h3.3v-2.52h-3.9
				c-0.57,0-1.08-0.27-1.41-0.7h5.31v-2.29h-5.31C65.09,43.9,65.6,43.63,66.17,43.63z"/>
			<g>
				<path class="st1" d="M50.66,47.31c-0.98,0-1.79-0.8-1.79-1.79v-0.1c0-0.98,0.81-1.79,1.79-1.79h3.71v-2.52h-3.33
					c-2.6,0-4.72,1.96-4.72,4.36c0,2.4,2.12,4.36,4.72,4.36h3.33v-2.52H50.66z"/>
			</g>
			<polygon class="st1" points="79.14,41.28 70.73,41.28 70.73,43.53 73.81,43.53 73.81,49.69 76.06,49.69 76.06,43.53 79.14,43.53 
							"/>
			<polygon class="st2" points="59.12,45.45 63.26,41.28 59.91,41.28 57.58,43.63 57.58,41.28 55.33,41.28 55.33,49.69 57.58,49.69 
				57.58,47.28 59.97,49.69 63.32,49.69 			"/>
		</g>
		<g>
			<path class="st2" d="M92.99,81.76c-0.37,0.07-0.7,0.31-0.98,0.7c-0.27,0.37-0.41,0.75-0.41,1.14c0,0.23,0.05,0.46,0.14,0.67
				c0.12,0.28,0.28,0.41,0.49,0.41c0.11,0,0.24-0.06,0.41-0.17l0.23,0.63c-0.21,0.13-0.42,0.19-0.62,0.19c-0.27,0-0.53-0.1-0.78-0.3
				c-0.15-0.12-0.28-0.34-0.41-0.67c-0.07-0.16-0.1-0.4-0.1-0.73V83.4c0-0.51,0.27-1.08,0.81-1.72c0.12-0.13,0.31-0.32,0.58-0.56
				h0.85v0.62C93.13,81.75,93.06,81.76,92.99,81.76z"/>
			<path class="st2" d="M96.76,81.74v3.54h-0.71v-0.46c0-0.16-0.12-0.36-0.36-0.6c-0.18-0.19-0.37-0.35-0.57-0.49
				c-0.22-0.15-0.46-0.23-0.72-0.23c-0.26,0-0.46,0.11-0.58,0.34c-0.01,0.02-0.02,0.06-0.02,0.1c0,0.09,0.05,0.18,0.14,0.26
				c0.09,0.08,0.19,0.11,0.28,0.11c0.07,0,0.25-0.06,0.54-0.17l0.21,0.64c-0.32,0.16-0.58,0.24-0.79,0.24
				c-0.24,0-0.45-0.07-0.65-0.2c-0.2-0.13-0.34-0.31-0.43-0.52c-0.04-0.09-0.06-0.21-0.06-0.34c0-0.4,0.17-0.71,0.5-0.92
				c0.23-0.15,0.48-0.23,0.74-0.23c0.03,0,0.05,0,0.07,0c-0.01-0.12-0.07-0.26-0.2-0.42c-0.13-0.15-0.25-0.23-0.37-0.23H93v-0.43
				h-0.32v-0.62h4.56v0.62H96.76z M96.05,81.74h-1.67c0.47,0.31,0.72,0.7,0.74,1.2c0.3,0.12,0.61,0.35,0.93,0.7V81.74z"/>
			<path class="st2" d="M98.14,81.74v3.54h-0.71v-3.54h-0.52v-0.62h1.7v0.62H98.14z"/>
			<path class="st2" d="M101.55,81.74h-3.19v-0.62h4.42v0.62h-0.49v3.54h-0.63c-0.06-0.18-0.37-0.46-0.92-0.84
				c-0.23-0.16-0.54-0.31-0.93-0.46c-0.42-0.16-0.76-0.24-1.01-0.24l-0.19-0.7c0.17-0.13,0.62-0.36,1.37-0.68
				C100.3,82.22,100.82,82.02,101.55,81.74z M101.59,82.51c-0.13,0.04-0.27,0.1-0.42,0.15c-0.22,0.1-0.63,0.27-1.21,0.53l-0.14,0.06
				c0.56,0.2,1.09,0.49,1.6,0.87c0.07,0.05,0.12,0.09,0.17,0.12V82.51z"/>
			<path class="st2" d="M103.67,81.74v3.54h-0.71v-3.54h-0.52v-0.62h1.7v0.62H103.67z"/>
			<path class="st2" d="M103.89,81.74v-0.62h2.09c0.01-0.02,0.01-0.04,0.01-0.05c0-0.32-0.15-0.54-0.46-0.64
				c-0.04-0.01-0.09-0.01-0.14-0.01c-0.08,0-0.17,0.01-0.28,0.04c-0.15,0.04-0.24,0.06-0.27,0.07c-0.12,0.02-0.23,0.06-0.32,0.11
				c-0.12,0.08-0.25,0.15-0.4,0.22l-0.23-0.52c0.27-0.19,0.63-0.35,1.07-0.48c0.19-0.05,0.36-0.08,0.53-0.08
				c0.18,0,0.37,0.06,0.59,0.19c0.38,0.23,0.57,0.61,0.59,1.16h0.41v0.62H103.89z M106.35,85.88c-0.29-0.26-0.59-0.5-0.92-0.73
				c-0.16-0.11-0.41-0.23-0.77-0.36c-0.29-0.1-0.45-0.15-0.5-0.15l0.01-0.83c0.06,0,0.15,0,0.27,0.01c0.12,0.01,0.21,0.01,0.27,0.01
				c0.32,0,0.58-0.04,0.78-0.12c0.38-0.16,0.57-0.35,0.57-0.57c0-0.16-0.07-0.29-0.22-0.4c-0.14-0.08-0.28-0.16-0.43-0.24
				c-0.04-0.02-0.08-0.03-0.12-0.03c-0.09,0-0.18,0.02-0.28,0.07c-0.13,0.06-0.18,0.12-0.17,0.2c0.03,0.18,0.22,0.26,0.58,0.23
				l-0.38,0.59c-0.16,0.01-0.31-0.04-0.47-0.15c-0.29-0.2-0.44-0.44-0.44-0.72c0-0.28,0.15-0.5,0.44-0.66
				c0.24-0.13,0.52-0.2,0.83-0.2c0.14,0,0.25,0.02,0.35,0.07c0.1,0.04,0.2,0.09,0.3,0.15c0.48,0.24,0.72,0.62,0.72,1.12
				c0,0.36-0.15,0.65-0.44,0.87c-0.23,0.17-0.55,0.29-0.97,0.36c0.13,0.06,0.31,0.16,0.54,0.3c0.4,0.3,0.72,0.57,0.97,0.81
				L106.35,85.88z"/>
			<path class="st2" d="M111.32,81.74v3.54h-0.71v-1.4c0-0.12-0.05-0.25-0.16-0.38c-0.11-0.13-0.22-0.19-0.34-0.19
				c-0.11,0-0.22,0.07-0.32,0.2c-0.1,0.14-0.15,0.29-0.15,0.47h-0.77c0-0.2-0.05-0.36-0.15-0.51c-0.1-0.14-0.22-0.21-0.35-0.21
				c-0.11,0-0.22,0.04-0.32,0.12c-0.1,0.08-0.16,0.17-0.17,0.27l-0.02,0.18v0.07c0,0.36,0.22,0.54,0.67,0.54
				c0.07,0,0.19-0.01,0.36-0.04l-0.25,0.72c-0.15,0.02-0.23,0.02-0.26,0.02c-0.33,0-0.64-0.12-0.92-0.37
				c-0.11-0.09-0.2-0.24-0.27-0.43c-0.07-0.17-0.1-0.34-0.1-0.5c0-0.38,0.12-0.69,0.35-0.93c0.24-0.24,0.54-0.36,0.93-0.36
				c0.36,0,0.66,0.17,0.9,0.51c0.26-0.34,0.54-0.51,0.84-0.51c0.17,0,0.33,0.08,0.48,0.23v-1.05h-3.83v-0.62h4.93v0.62H111.32z"/>
			<path class="st2" d="M116.63,81.74h-3.19v-0.62h4.42v0.62h-0.49v3.54h-0.63c-0.06-0.18-0.37-0.46-0.92-0.84
				c-0.23-0.16-0.54-0.31-0.93-0.46c-0.42-0.16-0.76-0.24-1.01-0.24l-0.19-0.7c0.17-0.13,0.62-0.36,1.37-0.68
				C115.38,82.22,115.9,82.02,116.63,81.74z M116.67,82.51c-0.13,0.04-0.27,0.1-0.42,0.15c-0.22,0.1-0.63,0.27-1.21,0.53l-0.14,0.06
				c0.56,0.2,1.09,0.49,1.6,0.87c0.07,0.05,0.12,0.09,0.17,0.12V82.51z"/>
			<path class="st2" d="M119.05,81.74c-0.22,0.31-0.34,0.57-0.34,0.77c0,0.09,0.11,0.47,0.34,1.12c0.12,0.33,0.18,0.6,0.18,0.82
				c0,0.41-0.23,0.7-0.69,0.86c-0.14,0.05-0.39,0.1-0.75,0.13l0.1-0.61c0.42-0.09,0.63-0.24,0.63-0.44c0-0.19-0.09-0.49-0.26-0.89
				c-0.17-0.4-0.26-0.69-0.26-0.88c0-0.24,0.1-0.54,0.3-0.89h-0.74v-0.62h1.97v0.62H119.05z"/>
			<path class="st2" d="M120.56,81.74v3.54h-0.71v-3.54h-0.52v-0.62h1.7v0.62H120.56z"/>
			<path class="st2" d="M122.19,83.42c-0.33,0-0.6-0.1-0.8-0.31c-0.2-0.21-0.3-0.48-0.3-0.81c0-0.3,0.1-0.56,0.31-0.76
				c0.21-0.2,0.46-0.31,0.77-0.31c0.42,0,0.72,0.21,0.9,0.63c0.08,0.18,0.12,0.35,0.12,0.52c0,0.32-0.09,0.57-0.26,0.76
				C122.76,83.33,122.52,83.42,122.19,83.42z M122.97,85.7c-0.9-0.76-1.51-1.21-1.83-1.36l0.01-0.98c1.23,0.88,2.04,1.59,2.42,2.11
				v0.73L122.97,85.7z M122.34,81.98c-0.07-0.05-0.14-0.07-0.21-0.06c-0.27,0.04-0.4,0.18-0.4,0.4c0,0.11,0.04,0.22,0.13,0.31
				c0.09,0.1,0.19,0.14,0.3,0.14l0.1-0.01c0.2-0.06,0.3-0.19,0.3-0.37C122.56,82.22,122.49,82.08,122.34,81.98z"/>
			<path class="st2" d="M128.02,80.71c-0.82-0.52-1.5-0.78-2.03-0.78c-0.62,0-1.08,0.2-1.36,0.59c-0.1,0.14-0.15,0.34-0.16,0.6h0.5
				v0.62h-0.5v3.54h-0.72v-3.54h-0.47v-0.62h0.47c0.01-0.5,0.18-0.91,0.5-1.22c0.32-0.31,0.74-0.51,1.29-0.58
				c0.06-0.01,0.16-0.02,0.32-0.04H126c0.43,0,0.86,0.09,1.29,0.28c0.23,0.11,0.61,0.32,1.14,0.65L128.02,80.71z"/>
			<path class="st2" d="M127.44,81.74v0.02c0.3,0.01,0.6,0.11,0.93,0.28c0.45,0.25,0.68,0.58,0.68,1c0,0.25-0.08,0.46-0.23,0.64
				c-0.15,0.18-0.35,0.3-0.59,0.35c-0.24,0.06-0.45,0.07-0.62,0.03V83.4c0.08,0.01,0.15,0.01,0.23,0.01c0.36,0,0.53-0.13,0.53-0.38
				c0-0.3-0.31-0.5-0.92-0.57v2.83h-0.63c-0.1-0.2-0.2-0.35-0.3-0.46c-0.04-0.04-0.13-0.16-0.27-0.35
				c-0.05-0.06-0.13-0.14-0.25-0.24c-0.12-0.1-0.2-0.18-0.25-0.24c-0.02-0.03-0.08-0.06-0.17-0.1c-0.31-0.11-0.55-0.16-0.75-0.16
				l-0.19-0.7c0.16-0.11,0.51-0.32,1.05-0.63c0.04-0.03,0.21-0.13,0.5-0.29c0.11-0.06,0.28-0.17,0.53-0.31v-0.05h-2.24v-0.62h4.86
				v0.62H127.44z M126.73,82.56c-0.12,0.09-0.29,0.21-0.53,0.35c-0.06,0.02-0.13,0.07-0.21,0.15c-0.08,0.08-0.15,0.15-0.22,0.21
				c0.08,0.07,0.2,0.16,0.36,0.29c0.16,0.18,0.35,0.39,0.6,0.65V82.56z"/>
			<path class="st2" d="M130.41,83.42c-0.33,0-0.6-0.1-0.8-0.31c-0.2-0.21-0.3-0.48-0.3-0.81c0-0.3,0.1-0.56,0.31-0.76
				c0.21-0.2,0.46-0.31,0.77-0.31c0.42,0,0.72,0.21,0.9,0.63c0.08,0.18,0.12,0.35,0.12,0.52c0,0.32-0.09,0.57-0.26,0.76
				C130.98,83.33,130.73,83.42,130.41,83.42z M131.18,85.7c-0.9-0.76-1.51-1.21-1.83-1.36l0.01-0.98c1.23,0.88,2.04,1.59,2.42,2.11
				v0.73L131.18,85.7z M130.56,81.98c-0.07-0.05-0.14-0.07-0.21-0.06c-0.27,0.04-0.4,0.18-0.4,0.4c0,0.11,0.04,0.22,0.13,0.31
				c0.09,0.1,0.19,0.14,0.3,0.14l0.1-0.01c0.2-0.06,0.3-0.19,0.3-0.37C130.78,82.22,130.7,82.08,130.56,81.98z"/>
		</g>
		<g>
			<polygon class="st2" points="52.14,85.59 53.46,86.03 53.99,85.59 52.67,85.12 			"/>
			<g>
				<path class="st2" d="M52.58,81.93v-0.8H42.22v0.8h1.74v1.78c0,0,1.33,0,1.5,0c0,0,0.42-0.14,0.53-0.35c0,0.25,0,0.61,0,0.7
					c0,0.31-0.23,0.59-0.53,0.59c-0.29,0-2.07,0-2.2,0c-0.13,0-0.26-0.06-0.26-0.59c0-0.53,0-1.66,0-1.66h-0.77c0,0,0,1.96,0,2.13
					c0,0.18,0.11,0.8,0.67,0.8s2.86,0,2.98,0c0.46-0.02,0.79-0.49,0.82-0.89c0-0.86,0-2.04,0-2.04h-0.7
					c-0.07,0.31-0.03,0.53-0.35,0.61c-0.32,0-0.88,0-0.88,0v-1.08h2.55v3.4h0.88v-3.4h0.62v3.4c0,0,2.7,0,2.9,0
					c0.21,0,0.88-0.17,0.88-0.91c0-0.74,0-2.01,0-2.01h-0.7c0,0.2-0.03,0.49-0.35,0.49c-0.32,0-1.93,0-1.93,0v-0.96H52.58z
					 M51.44,83.59c0.13,0.04,0.31-0.18,0.44-0.35c0,0.2,0,0.51,0,0.82c0,0.31-0.25,0.59-0.44,0.59c-0.19,0-1.85,0-1.85,0v-1.06
					C49.59,83.59,51.28,83.59,51.44,83.59z"/>
			</g>
			<rect x="53.55" y="82.89" class="st2" width="1.76" height="0.94"/>
			<g>
				<path class="st2" d="M56.28,81.13v0.8h2.9v0.47h-2.9c0,0,0,1.76,0,1.9c0.06,0.62,0.38,1.03,0.98,1.03c0.72,0,2.62,0,2.62,0v-3.4
					h0.62v3.4h0.79v-4.2H56.28z M59.18,84.77c0,0-1.69,0-1.76,0c-0.26-0.04-0.44-0.35-0.44-0.7c0-0.35,0-0.94,0-0.94h2.2V84.77z"/>
			</g>
			<path class="st2" d="M65.09,81.93h3.59v0.47c-0.16,0-0.95,0-1.06,0c-0.04,0.33-0.59,0.51-0.7,0c-0.59,0-1.83,0-1.83,0
				s0,1.82,0,2.01c0,0.2,0.03,0.83,0.57,0.91c0.5,0,1.44,0,1.44,0v-0.68c0,0-0.79,0-0.97,0c-0.19-0.06-0.35-0.18-0.35-0.47
				c0-0.35,0-1.06,0-1.06h0.97v0.59h0.88v-0.47c-0.06-0.22,0.92-0.2,0.97,0c0,0.29,0,2.09,0,2.09h0.79v-3.4h0.53v3.4h0.79v-4.2
				h-5.61V81.93z"/>
			<g>
				<g>
					<path class="st2" d="M63.84,81.36c-0.32,0-1.87,0-1.87,0s0,0.93,0,1.1c0.07,0.35,0.26,0.79,0.9,0.82c0.64,0,1.49,0,1.49,0
						v-1.36C64.32,81.7,64.16,81.4,63.84,81.36z M63.27,82.54c-0.34,0-0.61-0.12-0.61-0.28c0-0.15,0.27-0.28,0.61-0.28
						c0.34,0,0.61,0.12,0.61,0.28C63.88,82.42,63.61,82.54,63.27,82.54z"/>
				</g>
			</g>
			<polygon class="st2" points="62.09,83.7 62.09,84.39 64.35,85.33 64.35,84.6 			"/>
			<g>
				<g>
					<path class="st2" d="M82.78,81.36c-0.32,0-1.87,0-1.87,0s0,0.93,0,1.1c0.07,0.35,0.26,0.79,0.9,0.82c0.64,0,1.5,0,1.5,0v-1.36
						C83.27,81.7,83.1,81.4,82.78,81.36z M82.21,82.54c-0.34,0-0.61-0.12-0.61-0.28c0-0.15,0.27-0.28,0.61-0.28
						c0.34,0,0.61,0.12,0.61,0.28C82.82,82.42,82.55,82.54,82.21,82.54z"/>
				</g>
			</g>
			<polygon class="st2" points="81.04,83.7 81.04,84.39 83.3,85.33 83.3,84.6 			"/>
			<path class="st2" d="M87.58,82.4v-0.47h1.46v-0.8h-5.06v0.8h2.9v0.47h-2.9c0,0,0,1.76,0,1.9c0.06,0.62,0.38,1.03,0.98,1.03
				c0.72,0,2.62,0,2.62,0v-2.09h0.7c0.12,0,0.15-0.06,0.18,0.12c0,0.22,0,0.35,0,0.35c-0.04,0.18-0.06,0.29-0.18,0.35
				c-0.12,0-0.26,0-0.26,0v0.7h0.52c0.18-0.02,0.5-0.21,0.53-0.47c0-0.39,0-1.9,0-1.9H87.58z M86.88,84.77c0,0-1.69,0-1.76,0
				c-0.26-0.04-0.44-0.35-0.44-0.7c0-0.35,0-0.94,0-0.94h2.18l0.01,0.12h0V84.77z"/>
			<g>
				<path class="st2" d="M73.06,81.13v0.8h2.9v0.47h-2.9c0,0,0,1.76,0,1.9c0.06,0.62,0.38,1.03,0.98,1.03c0.72,0,2.62,0,2.62,0v-3.4
					h0.92l-0.33,0.67v0.47c0,0,0.5,0,0.62,0c0.33,0.04,0.44,0.25,0.44,0.82c0,0.39-0.09,0.67-0.39,0.7c-0.19,0-0.57,0-0.57,0v0.7
					c0,0,0.44,0,0.62,0c0.18,0,0.98,0.08,1.06-0.7c0.09-1.58,0.16-2-0.97-2.11l0.16-0.55h1.24v3.4h0.79v-4.2H73.06z M75.96,84.77
					c0,0-1.69,0-1.76,0c-0.26-0.04-0.44-0.35-0.44-0.7c0-0.35,0-0.94,0-0.94h2.2V84.77z"/>
			</g>
		</g>
	</g>
</g>
</svg>
