<?xml version="1.0" encoding="utf-8"?>
<!-- Generator: Adobe Illustrator 24.0.1, SVG Export Plug-In . SVG Version: 6.00 Build 0)  -->
<svg version="1.1" id="Layer_1" xmlns="http://www.w3.org/2000/svg" xmlns:xlink="http://www.w3.org/1999/xlink" x="0px" y="0px"
	 viewBox="0 0 150 100" style="enable-background:new 0 0 150 100;" xml:space="preserve">
<style type="text/css">
	.st0{fill-rule:evenodd;clip-rule:evenodd;fill:#FFFFFF;}
	.st1{fill-rule:evenodd;clip-rule:evenodd;fill:#0058A0;}
	.st2{fill-rule:evenodd;clip-rule:evenodd;fill:#FAA61A;}
</style>
<g>
	<path class="st0" d="M145,100H5c-2.76,0-5-2.24-5-5V5c0-2.76,2.24-5,5-5h140c2.76,0,5,2.24,5,5v90C150,97.76,147.76,100,145,100z"
		/>
	<g>
		<polygon class="st1" points="57.99,67.11 63.83,32.94 73.16,32.94 67.32,67.11 57.99,67.11 		"/>
		<path class="st1" d="M101.11,33.79c-1.84-0.66-4.76-1.41-8.34-1.41c-9.24,0-15.69,4.62-15.74,11.26c-0.05,4.9,4.62,7.64,8.15,9.28
			c3.63,1.7,4.85,2.73,4.81,4.24c0,2.31-2.87,3.35-5.56,3.35c-3.72,0-5.7-0.52-8.77-1.79l-1.23-0.57l-1.27,7.64
			c2.17,0.99,6.17,1.79,10.37,1.84c9.8,0,16.12-4.57,16.21-11.69c0.05-3.86-2.45-6.83-7.82-9.28c-3.25-1.56-5.23-2.59-5.23-4.19
			c0-1.46,1.7-2.97,5.33-2.97c3.06-0.05,5.28,0.61,6.98,1.32l0.85,0.38L101.11,33.79L101.11,33.79z"/>
		<path class="st1" d="M125.01,32.99h-7.21c-2.22,0-3.91,0.61-4.9,2.83L99.08,67.16h9.76c0,0,1.6-4.24,1.98-5.14
			c1.08,0,10.56,0,11.92,0c0.28,1.18,1.13,5.14,1.13,5.14h8.63L125.01,32.99L125.01,32.99z M113.51,55
			c0.75-1.93,3.72-9.52,3.72-9.52c-0.09,0.09,0.75-1.98,1.23-3.25l0.61,2.92c0,0,1.79,8.15,2.17,9.85H113.51L113.51,55z"/>
		<path class="st1" d="M50.21,32.99l-9.14,23.28l-0.94-4.71c-1.7-5.47-7.02-11.36-12.91-14.33l8.34,29.88h9.85l14.66-34.12H50.21
			L50.21,32.99z"/>
		<path class="st2" d="M32.63,32.94H17.59l-0.09,0.75c11.64,2.83,19.42,9.66,22.62,17.86l-3.3-15.69
			C36.26,33.69,34.66,33.03,32.63,32.94L32.63,32.94z"/>
	</g>
</g>
</svg>
