<?xml version="1.0" encoding="utf-8"?>
<!-- Generator: Adobe Illustrator 24.0.1, SVG Export Plug-In . SVG Version: 6.00 Build 0)  -->
<svg version="1.1" id="Layer_1" xmlns="http://www.w3.org/2000/svg" xmlns:xlink="http://www.w3.org/1999/xlink" x="0px" y="0px"
	 viewBox="0 0 100 100" style="enable-background:new 0 0 100 100;" xml:space="preserve">
<style type="text/css">
	.st0{fill:#FFFFFF;}
	.st1{fill:#29A71A;}
</style>
<g>
	<path class="st0" d="M50,100L50,100C22.39,100,0,77.61,0,50v0C0,22.39,22.39,0,50,0h0c27.61,0,50,22.39,50,50v0
		C100,77.61,77.61,100,50,100z"/>
	<g id="Layer_2_1_">
		<g id="_09.whatsapp">
			<circle id="background" class="st1" cx="50" cy="50" r="49.5"/>
			<g id="icon">
				<path class="st0" d="M71.83,28.18C59.9,16.13,40.46,16.03,28.42,27.96c-9.48,9.39-11.81,23.83-5.76,35.73L19.39,79.5
					c-0.07,0.32,0,0.65,0.19,0.92c0.28,0.41,0.78,0.6,1.26,0.49l15.5-3.67c15.18,7.54,33.6,1.36,41.14-13.82
					C83.32,51.66,81.05,37.5,71.83,28.18L71.83,28.18z M66.99,66.74c-7.31,7.29-18.45,9.1-27.69,4.5l-2.16-1.07l-9.5,2.25l0.03-0.12
					l1.97-9.56l-1.06-2.09c-4.72-9.27-2.94-20.53,4.42-27.89c9.39-9.38,24.6-9.38,33.99,0c0.04,0.04,0.08,0.09,0.12,0.12
					C76.38,42.29,76.33,57.4,66.99,66.74z"/>
				<path class="st0" d="M66.15,59.73c-1.16,1.83-3,4.08-5.32,4.64c-4.05,0.98-10.27,0.03-18-7.18l-0.1-0.08
					c-6.8-6.31-8.57-11.55-8.14-15.72c0.24-2.36,2.2-4.5,3.86-5.9c0.93-0.79,2.32-0.68,3.12,0.25c0.14,0.16,0.26,0.35,0.34,0.55
					l2.5,5.63c0.33,0.74,0.23,1.61-0.28,2.25l-1.27,1.64c-0.56,0.69-0.63,1.66-0.2,2.43c0.71,1.24,2.41,3.07,4.29,4.76
					c2.12,1.91,4.46,3.66,5.95,4.26c0.81,0.33,1.75,0.14,2.36-0.49l1.47-1.48c0.58-0.57,1.41-0.78,2.19-0.56l5.95,1.69
					c1.19,0.36,1.86,1.62,1.49,2.81C66.33,59.39,66.25,59.56,66.15,59.73L66.15,59.73z"/>
			</g>
		</g>
	</g>
	<g>
		<path class="st0" d="M50,3c25.92,0,47,21.08,47,47c0,25.92-21.08,47-47,47C24.08,97,3,75.92,3,50C3,24.08,24.08,3,50,3 M50,0L50,0
			C22.39,0,0,22.39,0,50v0c0,27.61,22.39,50,50,50h0c27.61,0,50-22.39,50-50v0C100,22.39,77.61,0,50,0L50,0z"/>
	</g>
</g>
</svg>
