<?xml version="1.0" encoding="utf-8"?>
<!-- Generator: Adobe Illustrator 24.0.1, SVG Export Plug-In . SVG Version: 6.00 Build 0)  -->
<svg version="1.1" id="Layer_1" xmlns="http://www.w3.org/2000/svg" xmlns:xlink="http://www.w3.org/1999/xlink" x="0px" y="0px"
	 viewBox="0 0 100 100" style="enable-background:new 0 0 100 100;" xml:space="preserve">
<style type="text/css">
	.st0{fill:#FFFFFF;}
	.st1{fill:#FF0000;}
</style>
<g>
	<path class="st0" d="M50,100L50,100C22.39,100,0,77.61,0,50v0C0,22.39,22.39,0,50,0h0c27.61,0,50,22.39,50,50v0
		C100,77.61,77.61,100,50,100z"/>
	<g id="Layer_2_1_">
		<g id="Color">
			<g id="_02.YouTube">
				<circle id="Background" class="st1" cx="50" cy="50" r="49.5"/>
				<path id="Icon" class="st0" d="M66.2,31.38H33.8c-5.44,0-9.85,4.41-9.85,9.85c0,0,0,0,0,0.01v17.52c0,5.44,4.41,9.86,9.85,9.86
					c0,0,0,0,0.01,0h32.4c5.44,0,9.85-4.41,9.85-9.85c0,0,0,0,0-0.01V41.24C76.06,35.8,71.65,31.38,66.2,31.38
					C66.2,31.38,66.2,31.38,66.2,31.38L66.2,31.38z M43.14,57.99V42.01L56.86,50L43.14,57.99z"/>
			</g>
		</g>
	</g>
	<g>
		<path class="st0" d="M50,3c25.92,0,47,21.08,47,47c0,25.92-21.08,47-47,47C24.08,97,3,75.92,3,50C3,24.08,24.08,3,50,3 M50,0L50,0
			C22.39,0,0,22.39,0,50v0c0,27.61,22.39,50,50,50h0c27.61,0,50-22.39,50-50v0C100,22.39,77.61,0,50,0L50,0z"/>
	</g>
</g>
</svg>
